<svg width="92" height="24" viewBox="0 0 92 24" fill="none" xmlns="http://www.w3.org/2000/svg">
<path d="M90.5531 8.52404C90.1903 9.94571 89.3726 11.2176 88.2185 12.1552C88.2166 12.1576 88.2155 12.1605 88.2155 12.1636C88.2155 12.1666 88.2166 12.1696 88.2185 12.172C88.9046 13.143 89.1605 14.4371 88.8213 15.8614L88.5513 17.0038C87.9971 19.3455 85.6028 21.2445 83.2038 21.2445H68.9354C68.3859 21.2445 68.0437 20.8096 68.1693 20.2751L68.926 17.0896C68.927 17.0858 68.9292 17.0824 68.9323 17.0799C68.9354 17.0775 68.9393 17.076 68.9433 17.0758H81.5035C81.9018 17.0664 82.285 16.9248 82.5899 16.6746C82.896 16.4345 83.1159 16.1057 83.2179 15.7358C83.4158 14.97 82.8678 14.3391 82.0797 14.3391H75.0852C74.9942 14.3429 74.9036 14.3253 74.8211 14.2878C74.7386 14.2502 74.6665 14.1938 74.6111 14.1234C74.5556 14.0529 74.5184 13.9704 74.5025 13.8829C74.4867 13.7955 74.4927 13.7055 74.52 13.6208L75.2045 10.7294C75.2565 10.5309 75.3724 10.354 75.5352 10.2247C75.698 10.0954 75.8991 10.0205 76.1089 10.0111H83.174C83.5726 10.0018 83.9562 9.8609 84.262 9.61139C84.5688 9.37126 84.7888 9.04179 84.89 8.67106C85.0878 7.90532 84.5415 7.27435 83.7533 7.27435H71.2622C71.2605 7.27443 71.2587 7.27409 71.2571 7.27337C71.2555 7.27265 71.2542 7.27157 71.2531 7.27023C71.252 7.26888 71.2513 7.2673 71.251 7.26562C71.2506 7.26394 71.2507 7.26221 71.2512 7.26057L72.0284 3.97402C72.0994 3.70467 72.2571 3.46466 72.4784 3.28932C72.6997 3.11397 72.9729 3.01256 73.2577 3H87.647C89.9753 3 91.4339 4.83777 90.8875 7.11049L90.5531 8.52404Z" fill="white"/>
<path d="M26.4531 17.0681C26.563 19.4848 28.1331 21.2445 30.4598 21.2445H40.3839C42.7107 21.2445 45.1129 19.4848 46.3657 17.0681H26.4531Z" fill="white"/>
<path d="M44.7004 3H34.7763C32.4213 3 29.9862 4.80408 28.7458 7.2667H48.7103C48.6349 4.80408 47.0555 3 44.7004 3Z" fill="white"/>
<path d="M27.8811 10.0033H32.9789L31.9553 14.3313H26.8574L27.8811 10.0033Z" fill="white"/>
<path d="M48.2995 10.0033L47.2758 14.3313H42.178L43.2032 10.0033H48.2995Z" fill="white"/>
<path d="M62.8058 14.3313L61.5545 12.1443L63.7917 10.0033H54.1769L55.4 12.1443L53.114 14.3313H62.8058Z" fill="white"/>
<path d="M50.0993 17.2167L46.5542 20.612C46.2857 20.8678 46.383 21.246 46.719 21.246H65.9314C66.2674 21.246 66.5437 20.8678 66.4024 20.612L64.4571 17.2167C64.4289 17.1691 64.3881 17.1297 64.3389 17.1027C64.2898 17.0758 64.2341 17.0623 64.1777 17.0636H50.4557C50.321 17.0675 50.1931 17.1224 50.0993 17.2167V17.2167Z" fill="white"/>
<path d="M52.4974 7.11817L50.5505 3.72595C50.403 3.46866 50.6809 3.09192 51.0215 3.09192H70.2292C70.5636 3.09192 70.6625 3.46866 70.3941 3.72595L66.849 7.11817C66.7566 7.21194 66.6305 7.26688 66.4973 7.27132H52.7706C52.7152 7.27154 52.6608 7.25748 52.6128 7.23059C52.5649 7.2037 52.525 7.16492 52.4974 7.11817V7.11817Z" fill="white"/>
<path d="M23.4648 12.2027C23.9145 12.8432 24.1737 13.5927 24.2137 14.3682H4.58838L5.61203 10.0448H25.2373C24.7937 10.8683 24.192 11.6008 23.4648 12.2027Z" fill="white"/>
<path d="M26.1278 7.21905C26.1223 7.24245 26.109 7.2634 26.09 7.27864C26.0709 7.29388 26.0473 7.30254 26.0227 7.30328H6.34555C6.33487 7.3038 6.32423 7.30177 6.31453 7.29738C6.30483 7.29299 6.29637 7.28636 6.28988 7.27808C6.28339 7.26979 6.27907 7.26008 6.27728 7.2498C6.27549 7.23952 6.27629 7.22896 6.27961 7.21905L6.71765 5.36443L4.69703 3.7962C4.62342 3.7421 4.56925 3.66667 4.54229 3.58071C4.51533 3.49474 4.51695 3.40266 4.54693 3.31765C4.57691 3.23265 4.6337 3.15908 4.70918 3.10748C4.78465 3.05589 4.87493 3.02893 4.96707 3.03046H22.8308C25.1984 3.03658 26.6742 4.90958 26.1278 7.21905Z" fill="white"/>
<path d="M23.7644 17.1924C23.1458 19.4651 20.8033 21.2814 18.4561 21.2814H1.4371C1.34468 21.2836 1.25393 21.2571 1.17794 21.2058C1.10194 21.1544 1.04462 21.0809 1.01424 20.9957C0.983854 20.9106 0.981977 20.8182 1.00888 20.7319C1.03578 20.6456 1.09006 20.5699 1.16391 20.5157L3.5739 18.6473L3.9193 17.1816C3.92539 17.1582 3.93908 17.1374 3.95832 17.1222C3.97757 17.107 4.00133 17.0983 4.02607 17.0974H23.6969C23.7089 17.0962 23.7211 17.0981 23.7321 17.103C23.7431 17.1079 23.7526 17.1157 23.7595 17.1254C23.7664 17.1351 23.7705 17.1464 23.7714 17.1582C23.7722 17.17 23.7698 17.1818 23.7644 17.1924V17.1924Z" fill="white"/>
</svg>
