<svg width="110" height="110" viewBox="0 0 110 110" fill="none" xmlns="http://www.w3.org/2000/svg">
<path fill-rule="evenodd" clip-rule="evenodd" d="M94.1375 37.1045L92.6837 37.7712V44.1829L97.3828 42.8621V41.5337C97.611 42.151 97.7799 42.7971 97.8828 43.4649V66.5351C97.7799 67.2029 97.611 67.849 97.3828 68.4663V67.0168L92.6837 65.6961V72.0818L94.2551 72.8025C94.0797 72.9434 93.8993 73.0785 93.7144 73.2074H79.1347L80.6635 74.376H91.4848C90.8754 74.6026 90.2379 74.7715 89.579 74.876H20.4208C19.7619 74.7715 19.1244 74.6026 18.515 74.376H29.3353L30.8641 73.2074H16.5117L16.377 73.2705C16.1598 73.1226 15.9487 72.9663 15.7443 72.8022L17.3164 72.0812V65.8167L12.6172 67.1375V68.4669C12.3891 67.8497 12.2201 67.2039 12.1172 66.5364V43.4636C12.2201 42.7961 12.3891 42.1503 12.6172 41.5331V42.9827L17.3164 44.3035V37.8411L15.818 37.1392C16.0391 36.9651 16.2677 36.8001 16.5033 36.6448H30.8631L29.3353 35.4771H18.9393C19.9039 35.1673 20.9324 35 21.9999 35H87.9999C89.0674 35 90.0959 35.1673 91.0605 35.4771H80.6635L79.1357 36.6448H93.4965C93.7164 36.7897 93.9302 36.9431 94.1375 37.1045ZM88.623 39.6334L92.1837 38.0005V44.3235L88.623 45.3243V39.6334ZM87.5469 40.127L88.123 39.8627V45.4648L85.3633 46.2405V41.1499L87.5469 40.127ZM41.8482 65.4404H50.2059L50.2001 65.4536H41.831L41.8482 65.4404ZM41.1769 65.9536H49.9821L49.9526 66.0212H41.0885L41.1769 65.9536ZM40.2652 66.0212L40.3536 65.9536H31.9974L31.8532 66.0212H40.2652ZM30.7858 66.5212H39.6111L39.4376 66.6538H30.5026L30.7858 66.5212ZM29.4351 67.1538H38.7835L38.5134 67.3603H28.9944L29.4351 67.1538ZM27.9269 67.8603L27.2909 68.1582H37.4695L37.8593 67.8603H27.9269ZM25.3573 69.064L26.2235 68.6582H36.8154L36.2846 69.064H25.3573ZM24.2899 69.564L23.1419 70.1017H34.927L35.6305 69.564H24.2899ZM20.5782 71.3026L22.0745 70.6017H34.2729L33.3562 71.3024L20.5782 71.3026ZM19.5108 71.8026L17.5791 72.7074H31.5182L32.7021 71.8024L19.5108 71.8026ZM30.1586 74.376L31.6874 73.2074H46.8186L46.3089 74.376H30.1586ZM46.8544 74.376L47.3641 73.2074H62.6337L63.1433 74.376H46.8544ZM47.5821 72.7074H62.4157L62.021 71.8021L47.9769 71.8023L47.5821 72.7074ZM63.6888 74.376L63.1792 73.2074H78.3114L79.8402 74.376H63.6888ZM62.9612 72.7074H77.6572L76.4726 71.8019L62.5664 71.8021L62.9612 72.7074ZM78.4806 72.7074H92.6785L90.7451 71.8018L77.2959 71.8019L78.4806 72.7074ZM32.3415 72.7074H47.0366L47.4314 71.8023L33.5254 71.8024L32.3415 72.7074ZM61.8029 71.3021L48.1949 71.3023L48.5004 70.6017H61.4975L61.8029 71.3021ZM75.8184 71.3019L62.3484 71.3021L62.043 70.6017H74.9024L75.8184 71.3019ZM89.6777 71.3018L76.6418 71.3019L75.7257 70.6017H88.1833L89.6777 71.3018ZM47.6495 71.3023L34.1795 71.3024L35.0962 70.6017H47.955L47.6495 71.3023ZM48.7185 70.1017H61.2795L61.045 69.564H48.953L48.7185 70.1017ZM61.825 70.1017H74.2482L73.5447 69.564H61.5905L61.825 70.1017ZM75.0716 70.1017H87.1159L85.9679 69.564H74.368L75.0716 70.1017ZM35.7503 70.1017H48.173L48.4075 69.564H36.4538L35.7503 70.1017ZM60.827 69.064H49.1711L49.348 68.6582H60.6501L60.827 69.064ZM72.8906 69.064H61.3725L61.1955 68.6582H72.3597L72.8906 69.064ZM84.9006 69.064H73.7139L73.1831 68.6582H84.0197L84.719 68.9789L84.9006 69.064ZM48.6256 69.064H37.1079L37.6387 68.6582H48.8026L48.6256 69.064ZM49.5661 68.1582H60.432L60.3021 67.8603H49.696L49.5661 68.1582ZM60.9775 68.1582H71.7056L71.3158 67.8603H60.8476L60.9775 68.1582ZM72.5289 68.1582H82.9295L82.28 67.8603H72.1392L72.5289 68.1582ZM38.2928 68.1582H49.0206L49.1505 67.8603H38.6826L38.2928 68.1582ZM60.0841 67.3603H49.9141L50.0041 67.1538H59.9941L60.0841 67.3603ZM70.6617 67.3603H60.6296L60.5395 67.1538H70.3916L70.6617 67.3603ZM81.1898 67.3603H71.485L71.2149 67.1538H80.7396L81.1898 67.3603ZM49.3686 67.3603H39.3367L39.6068 67.1538H49.4586L49.3686 67.3603ZM40.2609 66.6538H49.6767L49.7346 66.5212H40.4344L40.2609 66.6538ZM50.2222 66.6538H59.7761L59.7182 66.5212H50.28L50.2222 66.6538ZM60.3215 66.6538H69.7374L69.5639 66.5212H60.2637L60.3215 66.6538ZM70.5608 66.6538H79.6494L79.3602 66.5212H70.3872L70.5608 66.6538ZM68.9097 66.0212H60.0457L60.0162 65.9536H68.8213L68.9097 66.0212ZM78.27 66.0212H69.7331L69.6447 65.9536H78.1226L78.27 66.0212ZM59.5002 66.0212H50.4981L50.5276 65.9536H59.4707L59.5002 66.0212ZM41.0249 65.4404L41.0077 65.4536H33.0649L33.0929 65.4404H41.0249ZM50.7456 65.4536H59.2527L59.247 65.4404H50.7513L50.7456 65.4536ZM59.7982 65.4536H68.1672L68.15 65.4404H59.7924L59.7982 65.4536ZM68.9905 65.4536H77.0325L77.0038 65.4404H68.9733L68.9905 65.4536ZM92.1837 71.8525V65.5555L88.623 64.5547V70.2194L92.1837 71.8525ZM88.123 69.9901V64.4142L85.3633 63.6385V68.7243L88.123 69.9901ZM68.7207 61.2305V48.6218H41.2802V48.6738V61.2305H68.7207ZM21.3789 70.218L17.8164 71.8518V65.6761L21.3789 64.6748V70.218ZM24.6387 68.723L21.8789 69.9887V64.5343L24.6387 63.7586V68.723ZM27.3123 67.4968L25.1387 68.4937V63.6181L27.3123 63.0072V67.4968ZM29.5449 66.4728L27.8123 67.2675V62.8666L29.5449 62.3797V66.4728ZM31.4395 65.604L30.0449 66.2435V62.2391L31.4395 61.8472V65.604ZM33.0645 64.8587L31.9395 65.3747V61.7066L33.0645 61.3904V64.8587ZM33.5645 64.6294V61.2499L34.4746 60.9941V64.212L33.5645 64.6294ZM34.9746 63.9827V60.8536L35.7109 60.6466V63.645L34.9746 63.9827ZM36.2109 63.4156V60.5061L36.8027 60.3397V63.1442L36.2109 63.4156ZM37.3027 62.9149V60.1992L37.7734 60.0669V62.6958L37.4458 62.8493L37.3027 62.9149ZM89.7339 38.5503L88.2373 39.2514H75.7254L76.6426 38.5503H89.7339ZM77.2968 38.0503L78.4815 37.1448H92.7341L90.8012 38.0503H77.2968ZM63.1795 36.6448H78.3123L79.8401 35.4771H63.6888L63.1795 36.6448ZM77.6582 37.1448H62.9615L62.5666 38.0503H76.4734L77.6582 37.1448ZM63.1433 35.4771L62.6341 36.6448H47.3637L46.8544 35.4771H63.1433ZM62.416 37.1448H47.5818L47.9767 38.0503H62.0212L62.416 37.1448ZM46.3089 35.4771L46.8182 36.6448H31.6864L30.1587 35.4771H46.3089ZM47.0363 37.1448H32.3405L33.5252 38.0503H47.4312L47.0363 37.1448ZM31.5172 37.1448H17.1487L19.1232 38.0503H32.7019L31.5172 37.1448ZM62.3486 38.5503H75.8193L74.902 39.2514H62.0429L62.3486 38.5503ZM48.1948 38.5503H61.8031L61.4974 39.2514H48.5006L48.1948 38.5503ZM34.1794 38.5503H47.6493L47.9551 39.2514H35.0966L34.1794 38.5503ZM20.2135 38.5503H33.356L34.2732 39.2514H21.7422L20.2135 38.5503ZM74.2478 39.7514H61.8248L61.5904 40.2891H73.5443L74.2478 39.7514ZM61.2794 39.7514H48.7186L48.9531 40.2891H61.0449L61.2794 39.7514ZM48.1731 39.7514H35.7507L36.4542 40.2891H48.4077L48.1731 39.7514ZM34.9274 39.7514H22.8325L24.005 40.2891H35.6308L34.9274 39.7514ZM87.1664 39.7514H75.0712L74.3677 40.2891H85.994L87.1664 39.7514ZM61.3723 40.7891H72.8902L72.3593 41.1948H61.1954L61.3723 40.7891ZM49.1712 40.7891H60.8269L60.6499 41.1948H49.3482L49.1712 40.7891ZM37.1083 40.7891H48.6257L48.8027 41.1948H37.6392L37.1083 40.7891ZM25.0953 40.7891H36.285L36.8158 41.1948H25.9801L25.0953 40.7891ZM73.7135 40.7891H84.9037L84.019 41.1948H73.1826L73.7135 40.7891ZM72.5285 41.6948H82.9287L82.2809 41.9919H72.1397L72.5285 41.6948ZM71.7051 41.6948H60.9773L60.8478 41.9919H71.3164L71.7051 41.6948ZM60.4319 41.6948H49.5663L49.6958 41.9919H60.3023L60.4319 41.6948ZM49.0208 41.6948H38.2933L38.682 41.9919H49.1504L49.0208 41.6948ZM37.47 41.6948H27.0704L27.7182 41.9919H37.8587L37.47 41.6948ZM60.6297 42.4919H70.6622L70.3904 42.6997H60.5391L60.6297 42.4919ZM49.9139 42.4919H60.0843L59.9937 42.6997H50.0045L49.9139 42.4919ZM39.3362 42.4919H49.3684L49.459 42.6997H39.608L39.3362 42.4919ZM28.8085 42.4919H38.5128L38.7846 42.6997H29.2616L28.8085 42.4919ZM71.4855 42.4919H81.1906L80.7376 42.6997H71.2137L71.4855 42.4919ZM70.5595 43.1997H79.6473L79.3609 43.3311H70.3877L70.5595 43.1997ZM69.7362 43.1997H60.3211L60.2638 43.3311H69.5643L69.7362 43.1997ZM59.7756 43.1997H50.2226L50.2799 43.3311H59.7183L59.7756 43.1997ZM49.6771 43.1997H40.2621L40.434 43.3311H49.7344L49.6771 43.1997ZM39.4388 43.1997H30.3519L30.6383 43.3311H39.6107L39.4388 43.1997ZM60.0458 43.8311H68.9101L68.8217 43.8987H60.0163L60.0458 43.8311ZM50.498 43.8311H59.5003L59.4708 43.8987H50.5274L50.498 43.8311ZM41.0882 43.8311H49.9525L49.9819 43.8987H41.1766L41.0882 43.8311ZM31.7286 43.8311H40.2648L40.3532 43.8987H31.876L31.7286 43.8311ZM69.7335 43.8311H78.2706L78.1233 43.8987H69.6451L69.7335 43.8311ZM68.9909 44.3987H77.033L77.0047 44.4116H68.9739L68.9909 44.3987ZM68.1675 44.3987H59.7983L59.7926 44.4116H68.1506L68.1675 44.3987ZM59.2528 44.3987H50.7455L50.7512 44.4116H59.2471L59.2528 44.3987ZM50.2 44.3987H41.8307L41.8477 44.4116H50.2057L50.2 44.3987ZM41.0074 44.3987H32.9663L32.9945 44.4116H41.0243L41.0074 44.3987ZM69.2207 59.1012V61.1668L69.3652 61.2345V59.1418L69.2207 59.1012ZM69.8652 59.2824V61.4687L70.0742 61.5666V59.3411L69.8652 59.2824ZM70.8574 61.9335L70.5742 61.8009V59.4817L70.8574 59.5613V61.9335ZM71.3574 62.1677L71.7285 62.3416V59.8061L71.3574 59.7018V62.1677ZM72.6992 62.7963L72.2285 62.5758V59.9466L72.6992 60.0789V62.7963ZM73.1992 63.0305L73.7891 63.3068V60.3853L73.1992 60.2195V63.0305ZM75.0254 63.8859L74.2891 63.541V60.5258L75.0254 60.7328V63.8859ZM75.5254 64.1202L76.4375 64.5474V61.1297L75.5254 60.8733V64.1202ZM78.0623 65.3085L76.9375 64.7816V61.2702L78.0623 61.5864V65.3085ZM78.5623 65.5427L79.9551 66.1952V62.1184L78.5623 61.7269V65.5427ZM82.1895 67.2418L80.4551 66.4294V62.2589L82.1895 62.7464V67.2418ZM82.6895 67.4761L84.8633 68.4944V63.4979L82.6895 62.8869V67.4761ZM97.3828 66.4975L92.6837 65.1767V58.6893L97.3828 59.1295V66.4975ZM88.623 58.3089L92.1837 58.6425V65.0361L88.623 64.0353V58.3089ZM88.623 57.8067L92.1837 58.1403V51.738L88.623 52.0717V57.8067ZM97.3828 58.6273L92.6837 58.1871V51.6912L97.3828 51.2508V58.6273ZM97.3828 50.7486L92.6837 51.189V44.7023L97.3828 43.3815V50.7486ZM88.623 45.8436L92.1837 44.8428V51.2358L88.623 51.5695V45.8436ZM88.123 58.2621L85.3633 58.0035V63.1191L88.123 63.8948V58.2621ZM88.123 57.7599L85.3633 57.5013V52.3772L88.123 52.1185V57.7599ZM88.123 45.9842L85.3633 46.7599V51.875L88.123 51.6164V45.9842ZM82.6895 57.753L84.8633 57.9567V62.9786L82.6895 62.3676V57.753ZM82.6895 57.2508L84.8633 57.4545V52.424L82.6895 52.6277V57.2508ZM82.6895 47.5114L84.8633 46.9004V51.9218L82.6895 52.1255V47.5114ZM82.6895 46.992L84.8633 46.381V41.3841L82.6895 42.4025V46.992ZM82.1895 57.7062L80.4551 57.5437V61.7395L82.1895 62.227V57.7062ZM82.1895 57.204L80.4551 57.0415V52.8371L82.1895 52.6746V57.204ZM82.1895 47.652L80.4551 48.1394V52.3349L82.1895 52.1724V47.652ZM82.1895 47.1326L80.4551 47.6201V43.4492L82.1895 42.6367V47.1326ZM78.5623 57.3664L79.9551 57.4969V61.599L78.5623 61.2075V57.3664ZM78.5623 56.8642L79.9551 56.9947V52.884L78.5623 53.0145V56.8642ZM78.5623 48.6715L79.9551 48.28V52.3818L78.5623 52.5123V48.6715ZM78.5623 48.1521L79.9551 47.7606V43.6835L78.5623 44.3359V48.1521ZM78.0623 57.3195L76.9375 57.2142V60.7508L78.0623 61.067V57.3195ZM78.0623 56.8174L76.9375 56.712V53.1667L78.0623 53.0613V56.8174ZM78.0623 48.812L76.9375 49.1281V52.6646L78.0623 52.5592V48.812ZM78.0623 48.2926L76.9375 48.6088V45.0971L78.0623 44.5702V48.2926ZM75.5254 57.0819L76.4375 57.1673V60.6103L75.5254 60.3539V57.0819ZM75.5254 56.5797L76.4375 56.6651V53.2136L75.5254 53.2991V56.5797ZM75.5254 49.5251L76.4375 49.2687V52.7114L75.5254 52.7969V49.5251ZM75.5254 49.0057L76.4375 48.7493V45.3313L75.5254 45.7586V49.0057ZM75.0254 57.035L74.2891 56.9661V60.0064L75.0254 60.2134V57.035ZM75.0254 56.5329L74.2891 56.4639V53.4149L75.0254 53.3459V56.5329ZM75.0254 49.6656L74.2891 49.8726V52.9127L75.0254 52.8437V49.6656ZM75.0254 49.1462L74.2891 49.3532V46.3378L75.0254 45.9929V49.1462ZM73.1992 56.864L73.7891 56.9192V59.8659L73.1992 59.7001V56.864ZM73.1992 56.3618L73.7891 56.417V53.4618L73.1992 53.5171V56.3618ZM73.1992 50.1789L73.7891 50.0131V52.9596L73.1992 53.0149V50.1789ZM73.1992 49.6595L73.7891 49.4937V46.572L73.1992 46.8484V49.6595ZM72.6992 56.8171L72.2285 56.773V59.4273L72.6992 59.5596V56.8171ZM72.6992 56.3149L72.2285 56.2708V53.608L72.6992 53.5639V56.3149ZM72.6992 50.3194L72.2285 50.4517V53.1058L72.6992 53.0617V50.3194ZM72.6992 49.8L72.2285 49.9323V47.3031L72.6992 47.0826V49.8ZM71.3574 56.6914L71.7285 56.7262V59.2867L71.3574 59.1824V56.6914ZM71.3574 56.1892L71.7285 56.224V53.6549L71.3574 53.6897V56.1892ZM71.3574 50.6966L71.7285 50.5923V53.1527L71.3574 53.1875V50.6966ZM71.3574 50.1772L71.7285 50.0729V47.5373L71.3574 47.7112V50.1772ZM70.8574 56.6446L70.5742 56.6181V58.9623L70.8574 59.0419V56.6446ZM70.8574 56.1424L70.5742 56.1159V53.7631L70.8574 53.7365V56.1424ZM70.8574 50.8371L70.5742 50.9167V53.2609L70.8574 53.2343V50.8371ZM70.8574 50.3177L70.5742 50.3973V48.0781L70.8574 47.9454V50.3177ZM70.0742 56.069V53.8099L69.8652 53.8295V56.0495L70.0742 56.069ZM70.0742 53.3077V51.0572L69.8652 51.116V53.3273L70.0742 53.3077ZM70.0742 50.5379V48.3123L69.8652 48.4102V50.5966L70.0742 50.5379ZM70.0742 58.8217V56.5712L69.8652 56.5516V58.763L70.0742 58.8217ZM69.3652 56.5048V58.6225L69.2207 58.5818V56.4913L69.3652 56.5048ZM69.3652 53.8764V56.0026L69.2207 55.9891V53.8899L69.3652 53.8764ZM69.3652 51.2565V53.3742L69.2207 53.3877V51.2971L69.3652 51.2565ZM69.3652 48.6444V50.7371L69.2207 50.7778V48.7122L69.3652 48.6444ZM12.6172 59.2501V66.6181L17.3164 65.2973V58.8099L12.6172 59.2501ZM17.8164 58.7631V65.1568L21.3789 64.1555V58.4293L17.8164 58.7631ZM17.8164 58.2609V51.8586L21.3789 52.1924V57.9272L17.8164 58.2609ZM17.3164 51.8118V58.3077L12.6172 58.7479V51.3714L17.3164 51.8118ZM17.8164 51.3564L21.3789 51.6903V45.9647L17.8164 44.9634V51.3564ZM17.3164 44.8229V51.3096L12.6172 50.8692V43.5021L17.3164 44.8229ZM17.8164 44.4441L21.3789 45.4454V39.7442L17.8164 38.0754V44.4441ZM21.8789 58.3825V64.0149L24.6387 63.2393V58.124L21.8789 58.3825ZM24.6387 57.6218L21.8789 57.8803V52.2393L24.6387 52.4979V57.6218ZM24.6387 51.9957L21.8789 51.7371V46.1053L24.6387 46.8809V51.9957ZM24.6387 46.3616L21.8789 45.5859V39.9784L24.6387 41.2713V46.3616ZM25.1387 58.0771V63.0987L27.3123 62.4878V57.8735L25.1387 58.0771ZM25.1387 57.5749V52.5448L27.3123 52.7485V57.3713L25.1387 57.5749ZM25.1387 52.0426L27.3123 52.2463V47.6324L25.1387 47.0215V52.0426ZM25.1387 46.5021L27.3123 47.113V42.5237L25.1387 41.5055V46.5021ZM27.8123 57.8267V62.3472L29.5449 61.8603V57.6644L27.8123 57.8267ZM29.5449 57.1622L27.8123 57.3245V52.7953L29.5449 52.9577V57.1622ZM29.5449 52.4555L27.8123 52.2931V47.7729L29.5449 48.2599V52.4555ZM29.5449 47.7405L27.8123 47.2536V42.758L29.5449 43.5696V47.7405ZM30.0449 57.6175V61.7197L31.4395 61.3278V57.4869L30.0449 57.6175ZM30.0449 57.1153V53.0045L31.4395 53.1352V56.9847L30.0449 57.1153ZM30.0449 52.5023L31.4395 52.633V48.7924L30.0449 48.4004V52.5023ZM30.0449 47.8811L31.4395 48.273V44.4571L30.0449 43.8038V47.8811ZM31.9395 57.44V61.1873L33.0645 60.8711V57.3347L31.9395 57.44ZM33.0645 56.8325L31.9395 56.9379V53.1821L33.0645 53.2875V56.8325ZM33.0645 52.7853L31.9395 52.6799V48.9329L33.0645 49.2491V52.7853ZM33.0645 48.7298L31.9395 48.4136V44.6913L33.0645 45.2183V48.7298ZM33.5645 57.2878V60.7305L34.4746 60.4747V57.2026L33.5645 57.2878ZM33.5645 56.7856V53.3343L34.4746 53.4196V56.7004L33.5645 56.7856ZM33.5645 52.8321L34.4746 52.9174V49.6455L33.5645 49.3897V52.8321ZM33.5645 48.8703L34.4746 49.1261V45.8789L33.5645 45.4526V48.8703ZM34.9746 57.1557V60.3342L35.7109 60.1272V57.0867L34.9746 57.1557ZM35.7109 56.5846L34.9746 56.6535V53.4665L35.7109 53.5355V56.5846ZM35.7109 53.0333L34.9746 52.9643V49.786L35.7109 49.993V53.0333ZM35.7109 49.4736L34.9746 49.2666V46.1131L35.7109 46.4581V49.4736ZM36.2109 57.0399V59.9867L36.8027 59.8204V56.9845L36.2109 57.0399ZM36.2109 56.5377V53.5823L36.8027 53.6378V56.4823L36.2109 56.5377ZM36.2109 53.0801L36.8027 53.1356V50.2998L36.2109 50.1335V53.0801ZM36.2109 49.6141L36.8027 49.7805V46.9695L36.2109 46.6923V49.6141ZM37.3027 56.9376V59.6798L37.7734 59.5475V56.8935L37.3027 56.9376ZM37.7734 56.3913L37.3027 56.4354V53.6846L37.7734 53.7287V56.3913ZM37.7734 53.2266L37.3027 53.1824V50.4404L37.7734 50.5727V53.2266ZM37.7734 50.0533L37.3027 49.921V47.2038L37.7734 47.4243V50.0533ZM38.2734 56.8467V59.407L38.6426 59.3032V56.8121L38.2734 56.8467ZM38.2734 62.4616V59.9264L38.6426 59.8226V62.2887L38.2734 62.4616ZM38.2734 56.3445V53.7756L38.6426 53.8102V56.3099L38.2734 56.3445ZM38.2734 53.2734L38.6426 53.308V50.8169L38.2734 50.7132V53.2734ZM38.2734 50.1938L38.6426 50.2976V47.8314L38.2734 47.6585V50.1938ZM39.1426 59.6821V62.0545L39.4258 61.9218V59.6025L39.1426 59.6821ZM39.1426 56.7653V59.1627L39.4258 59.0831V56.7387L39.1426 56.7653ZM39.4258 56.2365L39.1426 56.2631V53.857L39.4258 53.8836V56.2365ZM39.4258 53.3814L39.1426 53.3549V50.9575L39.4258 51.0371V53.3814ZM39.4258 50.5177L39.1426 50.4381V48.0656L39.4258 48.1983V50.5177ZM39.9258 56.6919V58.9426L40.1348 58.8838V56.6723L39.9258 56.6919ZM39.9258 61.6876V59.4619L40.1348 59.4032V61.5897L39.9258 61.6876ZM39.9258 56.1897V53.9304L40.1348 53.95V56.1701L39.9258 56.1897ZM39.9258 53.4283L40.1348 53.4478V51.2363L39.9258 51.1776V53.4283ZM39.9258 50.6582L40.1348 50.717V48.5304L39.9258 48.4326V50.6582ZM40.6348 59.2627V61.3555L40.7802 61.2874V59.2218L40.6348 59.2627ZM40.6348 56.6255V58.7433L40.7802 58.7024V56.6119L40.6348 56.6255ZM40.7802 56.1097L40.6348 56.1233V53.9969L40.7802 54.0105V56.1097ZM40.7802 53.5083L40.6348 53.4947V51.3769L40.7802 51.4177V53.5083ZM40.7802 50.8984L40.6348 50.8575V48.7647L40.7802 48.8328V50.8984Z" fill="#D9D9D9"/>
</svg>
