<svg width="110" height="110" viewBox="0 0 110 110" fill="none" xmlns="http://www.w3.org/2000/svg">
<g clip-path="url(#clip0_1461_1349)">
<path d="M-41.8594 89.5182L-39.2205 87.8355L-36.5342 88.6768L-31.9269 85.7321L-29.5876 86.6807L-16.5219 85.7321C-16.5219 85.7321 -10.1174 82.8039 -6.51337 82.0038C-2.90935 81.2037 8.64918 77.3929 9.05808 77.0341C9.46698 76.6794 10.9694 73.347 10.9694 73.347H12.8808L17.141 71.6272L18.7385 65.8326L21.6674 65.4532L29.4555 73.7388L30.8439 71.6272L31.7948 71.9447L34.8282 65.4573H36.5494L41.499 49.8058L42.1504 50.5811L44.7512 32.0344L46.9859 44.6422L49.3774 43.1121L53.6471 51.74L57.2701 49.4758L59.8567 49.8058L64.6684 46.8198H67.4831L71.7575 40.4808L73.3551 32.0344L77.8673 26.8667L79.9783 30.5373L82.2178 32.0385L84.6046 35.7586L83.0023 39.5364L84.6046 44.6463L92.1027 46.8239L95.3786 45.7434L99.5817 47.4261L102.834 51.5297L108.991 53.7403L115.11 52.7917L117.954 54.792L119.294 59.6339L125.048 61.4238L126.403 64.2406L130.824 62.9951L139.473 60.5824L141.637 61.531L147.437 60.5824L151.022 61.4238L153.043 58.1945H155.449L159.405 55.3199L161.316 49.48L164.716 47.5333L167.083 44.6422L170.012 45.9537L173.288 46.8198" stroke="white" stroke-width="0.68" stroke-miterlimit="10" stroke-linejoin="round"/>
<path d="M134.82 89.5177L132.651 88.389L130.44 88.9533L126.653 86.976L124.731 87.6135L113.994 86.976C113.994 86.976 108.73 85.0109 105.769 84.475C102.807 83.939 93.3081 81.3811 92.972 81.1416C92.636 80.902 91.4013 78.6649 91.4013 78.6649H89.8305L86.3295 77.5118L85.0166 73.6221L82.6097 73.3663L76.2094 78.9247L75.0685 77.5077L74.287 77.7188L71.7941 73.3663H70.3797L66.3121 62.8627L65.7768 63.3824L63.6395 50.9339L61.803 59.3953L59.8376 58.368L56.3288 64.1578L53.3514 62.6393L51.2258 62.8586L47.2676 60.8529H44.9544L41.4417 56.5978L40.1289 50.9298L36.4208 47.4624L34.682 49.9229L32.8416 50.9298L30.8801 53.4268L32.1969 55.9644L30.8801 59.3953L24.7182 60.8569L22.026 60.1342L18.5719 61.2629L15.8993 64.0157L10.8393 65.4977L5.81049 64.8603L3.47389 66.2042L2.37201 69.4523L-2.3559 70.6541L-3.4695 72.5462L-7.10335 71.7098L-14.2108 70.0898L-15.9887 70.7272L-20.7557 70.0898L-23.7018 70.6541L-25.3624 68.486H-27.3396L-30.5905 66.5574L-32.1613 62.6393L-34.955 61.332L-36.9009 59.3912L-39.3078 60.2723L-42 60.8529" stroke="white" stroke-width="0.68" stroke-miterlimit="10" stroke-linejoin="round"/>
<path d="M133.622 88.3839C133.622 88.3839 133.645 88.3839 133.657 88.3876L134.82 88.7102L134.454 88.3876C134.695 88.3876 134.82 88.3876 134.82 88.3876L133.381 87.1087C133.342 87.075 133.284 87.0675 133.237 87.0862L131.864 87.6825C131.817 87.705 131.759 87.6938 131.72 87.66L129.227 85.4435C129.184 85.406 129.122 85.3985 129.071 85.4285L127.862 86.1111C127.838 86.1261 127.807 86.1299 127.78 86.1261L124.159 85.7623C124.159 85.7623 124.143 85.7623 124.135 85.7586L118.321 84.1534C118.321 84.1534 118.301 84.1459 118.29 84.1421C117.119 83.482 115.695 82.7432 114.665 82.4282C112.611 81.7943 106.022 78.7715 105.789 78.4902C105.579 78.2389 104.875 76.1049 104.727 75.6511C104.711 75.5986 104.661 75.5648 104.602 75.5648H103.646C103.622 75.5648 103.599 75.5573 103.58 75.5461L101.23 74.2297C101.199 74.2109 101.176 74.1809 101.168 74.1471L100.285 69.6879C100.273 69.6391 100.235 69.6016 100.184 69.5903L98.6866 69.3203C98.636 69.3091 98.5815 69.3316 98.5543 69.3728L94.2915 75.6811C94.237 75.7636 94.1048 75.7523 94.062 75.6661L93.4241 74.3159C93.393 74.2522 93.3152 74.2259 93.2491 74.2559L92.9651 74.3872C92.8951 74.4209 92.8095 74.3872 92.7862 74.3159L91.1293 69.3916C91.1137 69.3428 91.0632 69.3053 91.0048 69.3053H90.2231C90.1608 69.3053 90.1103 69.2641 90.0947 69.2078L87.3643 57.2026C87.3409 57.0938 87.1815 57.0713 87.1231 57.1688C87.0609 57.2738 86.8936 57.2401 86.882 57.1201L85.5518 43.926C85.5362 43.7835 85.3145 43.7797 85.2951 43.926L84.1943 52.5558C84.1827 52.6533 84.0543 52.6983 83.9765 52.6308L82.9458 51.7157C82.8758 51.6557 82.763 51.6819 82.7319 51.7644L80.4254 58.249C80.3943 58.3315 80.2854 58.3577 80.2154 58.2977L78.3446 56.6738C78.3135 56.6475 78.2746 56.6363 78.2318 56.6438L76.886 56.88C76.8471 56.8875 76.8043 56.8763 76.7732 56.85L74.1128 54.5548C74.0895 54.5323 74.0583 54.521 74.0233 54.521H72.5531C72.5026 54.521 72.4559 54.4948 72.4364 54.4498L70.0405 49.5104C70.0405 49.5104 70.0327 49.4879 70.0288 49.4767L69.1226 42.8233C69.1226 42.8233 69.1148 42.7933 69.107 42.7783L66.6839 38.9154C66.6294 38.8291 66.4894 38.8404 66.4505 38.9341L65.3537 41.5857C65.3537 41.5857 65.3381 41.6157 65.3226 41.6269L64.0818 42.7821C64.0818 42.7821 64.0624 42.8046 64.0546 42.8196L62.7244 45.7074C62.7127 45.7337 62.7088 45.7599 62.7205 45.79L62.7672 45.9437L62.7088 46.0712L63.5723 48.9028C63.5762 48.9216 63.5801 48.9403 63.5723 48.9591L62.7205 52.7358C62.7127 52.7733 62.6855 52.8071 62.6466 52.8221L58.4887 54.5023C58.4537 54.5173 58.4148 54.5173 58.3798 54.5023L56.6296 53.6997C56.5907 53.6809 56.544 53.6847 56.5051 53.7034L54.2025 54.9861C54.1831 54.9973 54.1675 55.0123 54.1559 55.0348L52.3356 58.2265C52.3239 58.249 52.3045 58.264 52.2811 58.2752L48.8467 59.9892C48.8195 60.0042 48.7884 60.0079 48.7573 60.0004L45.3851 59.2766C45.3423 59.2653 45.2956 59.2766 45.2606 59.3103L43.7165 60.8218C43.7165 60.8218 43.6893 60.8593 43.6815 60.8818L43.2497 63.0458C43.2264 63.1621 43.0592 63.1808 43.0047 63.0758L31.8108 40.9969C31.8108 40.9969 31.803 40.9744 31.7991 40.9631L31.4024 38.2178C31.3829 38.079 31.1729 38.079 31.1457 38.214L30.7178 40.5431C30.7062 40.6143 30.6284 40.6593 30.5545 40.6368L18.991 37.4452L18.9677 37.3402L17.0696 35.825C17.0463 35.8062 17.0307 35.7762 17.0268 35.75L15.79 26.5689C15.7705 26.4301 15.5605 26.4263 15.5333 26.5614L14.028 34.4786C14.0203 34.5198 13.9891 34.5536 13.9464 34.5686L12.8729 34.9661C12.8223 34.9849 12.764 34.9699 12.7251 34.9324L12.5306 34.7149C12.4722 34.6511 12.3633 34.6586 12.3167 34.7336L11.2159 36.5826C11.2159 36.5826 11.1926 36.6126 11.177 36.6238L9.94408 37.4227C9.94408 37.4227 9.91685 37.4452 9.90907 37.4602L8.56331 39.4929L8.62165 39.628L8.56331 39.718L9.419 41.672C9.43067 41.6982 9.43066 41.7245 9.42289 41.7545L8.58276 44.346C8.57109 44.3835 8.53608 44.4135 8.49719 44.4285L4.32766 45.6024C4.30043 45.6099 4.2732 45.6099 4.24987 45.6024L2.5735 45.0661C2.49571 45.0399 2.41403 45.0886 2.40236 45.1674L0.0297775 65.2061C0.0297775 65.2286 0.01811 65.2473 0.00255203 65.2661L-1.80606 67.4788C-1.80606 67.4788 -1.84107 67.5126 -1.8644 67.5201L-5.31049 68.7165C-5.32993 68.724 -5.35327 68.724 -5.37661 68.724L-8.77991 68.2139C-8.81491 68.2102 -8.84992 68.2139 -8.87714 68.2364L-10.4174 69.2866C-10.4407 69.3016 -10.4602 69.3278 -10.4679 69.3541L-10.9347 70.993C-10.9541 71.0568 -11.0203 71.0943 -11.0864 71.0793L-35.1506 66.4512L-35.174 66.3762L-37.0915 65.3111C-37.0915 65.3111 -37.1187 65.2923 -37.1265 65.2811L-38.3983 63.7771C-38.4372 63.7321 -38.4995 63.7171 -38.5539 63.7434L-40.1214 64.4222C-40.1214 64.4222 -40.133 64.426 -40.1408 64.4297L-42 64.906C-42 64.906 -42 64.9848 -42 65.1311" stroke="white" stroke-width="0.68" stroke-miterlimit="10" stroke-linejoin="round"/>
</g>
<defs>
<clipPath id="clip0_1461_1349">
<rect width="110" height="110" rx="10" fill="white"/>
</clipPath>
</defs>
</svg>
