<?xml version="1.0" standalone="no"?>
<!DOCTYPE svg PUBLIC "-//W3C//DTD SVG 20010904//EN"
 "http://www.w3.org/TR/2001/REC-SVG-20010904/DTD/svg10.dtd">
<svg version="1.0" xmlns="http://www.w3.org/2000/svg"
 width="1200.000000pt" height="1200.000000pt" viewBox="0 0 1200.000000 1200.000000"
 preserveAspectRatio="xMidYMid meet">
<metadata>
Created by potrace 1.14, written by Peter Selinger 2001-2017
</metadata>
<g transform="translate(0.000000,1200.000000) scale(0.100000,-0.100000)"
fill="#000000" stroke="none">
<path d="M10 6000 l0 -5990 5990 0 5990 0 0 5990 0 5990 -5990 0 -5990 0 0
-5990z m5923 960 c172 -28 300 -153 342 -335 9 -37 15 -78 13 -91 l-3 -24
-1023 -3 c-562 -1 -1022 0 -1022 2 0 17 89 149 130 194 55 60 68 88 20 42 -16
-16 -30 -27 -30 -24 0 3 19 23 42 44 23 22 36 32 29 23 -23 -31 -1 -20 47 23
26 23 46 46 44 51 -1 5 2 7 7 4 5 -4 38 9 73 28 73 39 120 56 192 66 76 11
1072 11 1139 0z m4445 -12 c24 -10 56 -27 72 -38 32 -23 44 -26 34 -7 -4 7 -3
9 2 4 5 -5 8 -11 7 -13 -2 -2 15 -27 36 -55 76 -101 88 -198 46 -380 -31 -133
-54 -197 -100 -273 -39 -64 -41 -71 -22 -60 7 4 9 3 4 -2 -5 -5 -12 -8 -15 -7
-9 2 -52 -38 -52 -49 0 -5 6 -6 13 -2 8 5 8 3 -2 -9 -7 -9 -17 -15 -21 -12 -9
6 -24 -13 -25 -30 0 -5 -8 -9 -18 -7 -21 4 -22 -7 -3 -34 33 -47 56 -142 56
-233 0 -109 -43 -292 -90 -380 -69 -129 -209 -245 -351 -292 l-74 -24 -783 0
-784 0 -24 28 c-13 15 -24 39 -24 52 0 20 61 297 76 347 5 16 52 18 667 20
l662 3 47 27 c77 46 111 151 66 205 -33 40 -64 43 -454 43 -414 0 -414 0 -414
60 0 32 68 327 80 350 24 45 24 45 450 50 l407 5 41 28 c45 29 82 90 82 134 0
45 -34 90 -77 102 -25 7 -259 11 -675 11 -529 0 -638 2 -638 14 0 37 83 361
98 382 9 13 35 33 57 44 39 20 51 20 820 18 710 -3 784 -5 823 -20z m-6573
-23 c33 -16 64 -31 69 -33 5 -3 5 1 1 8 -5 9 -4 11 4 6 6 -4 9 -11 6 -15 -6
-10 39 -53 47 -45 3 3 9 0 14 -7 5 -8 3 -10 -6 -4 -7 4 -11 4 -8 -1 2 -5 17
-36 33 -69 27 -55 30 -69 30 -163 l0 -102 -1015 0 c-558 0 -1018 4 -1023 9 -4
4 3 51 16 104 18 68 21 99 14 106 -15 15 -30 14 -21 -1 4 -7 4 -10 0 -6 -4 3
-8 10 -8 15 1 12 -29 43 -41 43 -5 0 -3 -8 4 -17 13 -16 12 -17 -3 -4 -10 7
-16 17 -13 21 3 5 -24 31 -59 60 -73 57 -86 82 -60 111 17 19 37 19 988 17
l971 -3 60 -30z m4712 7 c1 -23 -29 -58 -195 -224 l-197 -198 -726 0 -727 0
-97 175 c-53 96 -100 173 -104 171 -3 -2 -7 11 -8 29 -2 26 3 38 24 54 26 21
28 21 1027 21 l1001 -1 2 -27z m-2342 -72 c10 -11 16 -20 13 -20 -3 0 -13 9
-23 20 -10 11 -16 20 -13 20 3 0 13 -9 23 -20z m2305 -25 c-24 -25 -46 -45
-49 -45 -3 0 15 20 39 45 24 25 46 45 49 45 3 0 -15 -20 -39 -45z m1450 -518
c0 -2 -10 -12 -22 -23 l-23 -19 19 23 c18 21 26 27 26 19z m-6037 -107 c-43
-67 -105 -148 -136 -178 l-35 -34 29 -61 c15 -34 31 -88 35 -119 l7 -58 -1007
0 c-553 0 -1006 4 -1006 9 0 4 23 106 50 226 28 120 49 223 47 229 -3 8 279
11 1014 11 l1018 0 -16 -25z m746 -190 c-27 -118 -52 -223 -55 -232 -5 -16
-30 -18 -273 -20 -265 -3 -269 -3 -261 17 4 11 29 116 55 232 l49 213 265 2
c146 2 267 3 268 3 1 -1 -20 -97 -48 -215z m1558 -20 l-52 -225 -269 -3 c-213
-2 -267 0 -264 10 3 7 27 111 54 230 l49 218 265 2 c146 2 266 1 267 -2 2 -3
-21 -106 -50 -230z m1633 228 c0 -3 -52 -55 -116 -115 l-115 -109 62 -110 c34
-60 63 -112 66 -116 2 -4 -223 -9 -499 -10 -581 -3 -548 -11 -438 94 l65 63
-65 -67 c-104 -109 -56 -78 62 39 l107 106 -15 29 c-9 17 -20 26 -26 22 -7 -4
-8 -3 -4 4 4 7 -13 49 -38 94 l-45 83 500 0 c274 0 499 -3 499 -7z m-150 -171
c0 -2 -15 -16 -32 -33 l-33 -29 29 33 c28 30 36 37 36 29z m-1630 -570 c0 -5
-21 -41 -47 -80 -57 -86 -62 -97 -37 -77 18 14 18 14 5 -3 -8 -9 -16 -15 -19
-12 -8 8 -132 -117 -126 -126 2 -4 -1 -11 -7 -15 -8 -4 -9 -3 -5 4 11 19 2 14
-55 -24 -30 -20 -74 -46 -99 -57 -113 -51 -111 -50 -684 -54 -577 -4 -643 0
-729 42 -56 29 -61 30 -51 13 4 -7 5 -11 1 -8 -3 3 -6 10 -7 15 -2 6 -26 36
-55 67 -29 31 -62 76 -73 100 -25 52 -52 151 -52 193 l0 30 1020 0 c561 0
1020 -4 1020 -8z m1856 1 c5 -7 3 -8 -6 -3 -8 5 -11 3 -8 -6 3 -8 11 -13 17
-11 7 1 10 -2 6 -8 -3 -5 37 -87 89 -181 53 -94 96 -176 96 -181 0 -5 -11 -20
-25 -34 l-24 -24 -1003 0 -1003 1 -2 27 c0 15 4 36 10 47 6 11 11 23 12 28 0
4 3 6 7 5 9 -4 58 44 53 52 -2 3 37 47 88 96 l92 89 -85 -87 c-46 -49 -80 -88
-75 -88 6 0 73 63 150 140 l140 140 730 3 c401 1 731 3 732 5 1 1 5 -3 9 -10z
m-4160 -9 c3 -6 -13 -50 -36 -97 -78 -157 -232 -284 -396 -326 -54 -14 -173
-16 -968 -16 l-906 0 -17 26 c-12 19 -14 30 -6 43 5 9 66 61 134 116 l124 101
16 66 c9 37 19 74 22 82 6 14 113 16 1016 16 720 0 1012 -3 1017 -11z m-126
-263 c0 -2 -8 -10 -17 -17 -16 -13 -17 -12 -4 4 13 16 21 21 21 13z m520 -71
c13 -14 21 -25 18 -25 -2 0 -15 11 -28 25 -13 14 -21 25 -18 25 2 0 15 -11 28
-25z"/>
</g>
</svg>
