<svg width="212" height="212" viewBox="0 0 212 212" fill="none" xmlns="http://www.w3.org/2000/svg">
<path d="M202.5 105.5C202.5 162.416 159.265 208.5 106 208.5C52.7346 208.5 9.5 162.416 9.5 105.5C9.5 48.5836 52.7346 2.5 106 2.5C159.265 2.5 202.5 48.5836 202.5 105.5Z" stroke="currentColor"/>
<path d="M176.5 105.5C176.5 133.992 168.521 159.765 155.647 178.401C142.771 197.04 125.033 208.5 105.5 208.5C85.9668 208.5 68.229 197.04 55.3532 178.401C42.4789 159.765 34.5 133.992 34.5 105.5C34.5 77.0079 42.4789 51.2349 55.3532 32.5986C68.229 13.9604 85.9668 2.5 105.5 2.5C125.033 2.5 142.771 13.9604 155.647 32.5986C168.521 51.2349 176.5 77.0079 176.5 105.5Z" stroke="currentColor"/>
<path d="M134.5 105.5C134.5 133.982 131.208 159.712 125.917 178.274C123.269 187.566 120.144 194.976 116.739 200.028C113.298 205.134 109.81 207.5 106.5 207.5C103.19 207.5 99.7018 205.134 96.2612 200.028C92.8563 194.976 89.7311 187.566 87.0829 178.274C81.7923 159.712 78.5 133.982 78.5 105.5C78.5 77.0177 81.7923 51.2876 87.0829 32.7256C89.7311 23.4344 92.8563 16.0245 96.2612 10.9718C99.7018 5.86605 103.19 3.5 106.5 3.5C109.81 3.5 113.298 5.86605 116.739 10.9718C120.144 16.0245 123.269 23.4344 125.917 32.7256C131.208 51.2876 134.5 77.0177 134.5 105.5Z" stroke="currentColor" stroke-width="3"/>
</svg>
