<svg width="212" height="212" viewBox="0 0 212 212" fill="none" xmlns="http://www.w3.org/2000/svg">
<path d="M194.5 45.5C194.5 57.199 185.084 68.1845 168.963 76.3347C152.927 84.4419 130.668 89.5 106 89.5C81.3319 89.5 59.0733 84.4419 43.0372 76.3347C26.9159 68.1845 17.5 57.199 17.5 45.5C17.5 33.8011 26.9159 22.8155 43.0372 14.6653C59.0733 6.55812 81.3319 1.5 106 1.5C130.668 1.5 152.927 6.55812 168.963 14.6653C185.084 22.8155 194.5 33.8011 194.5 45.5Z" stroke="currentColor" stroke-width="3"/>
<path d="M207.5 160C207.5 174.073 196.299 186.943 177.898 196.324C159.523 205.691 134.104 211.5 106 211.5C77.8956 211.5 52.4767 205.691 34.1022 196.324C15.7005 186.943 4.5 174.073 4.5 160C4.5 145.927 15.7005 133.057 34.1022 123.676C52.4767 114.309 77.8956 108.5 106 108.5C134.104 108.5 159.523 114.309 177.898 123.676C196.299 133.057 207.5 145.927 207.5 160Z" stroke="currentColor"/>
<path d="M179.5 126C179.5 136.207 171.377 145.577 157.952 152.425C144.554 159.258 126.01 163.5 105.5 163.5C84.9896 163.5 66.4457 159.258 53.0477 152.425C39.6227 145.577 31.5 136.207 31.5 126C31.5 115.793 39.6227 106.423 53.0477 99.5753C66.4457 92.7415 84.9896 88.5 105.5 88.5C126.01 88.5 144.554 92.7415 157.952 99.5753C171.377 106.423 179.5 115.793 179.5 126Z" stroke="currentColor"/>
<path d="M149.5 85.5C149.5 91.4277 144.79 96.9223 136.885 100.965C129.007 104.993 118.088 107.5 106 107.5C93.9121 107.5 82.9933 104.993 75.1149 100.965C67.2097 96.9223 62.5 91.4277 62.5 85.5C62.5 79.5723 67.2097 74.0777 75.1149 70.0353C82.9933 66.0065 93.9121 63.5 106 63.5C118.088 63.5 129.007 66.0065 136.885 70.0353C144.79 74.0777 149.5 79.5723 149.5 85.5Z" stroke="currentColor"/>
</svg>
